<?xml version="1.0" encoding="UTF-8"?>
<svg width="26px" height="12px" viewBox="0 0 26 12" version="1.1" xmlns="http://www.w3.org/2000/svg" xmlns:xlink="http://www.w3.org/1999/xlink">
    <g id="Page-1" stroke="none" stroke-width="1" fill="none" fill-rule="evenodd">
        <g id="popup" transform="translate(-669.000000, -521.000000)" fill-rule="nonzero" fill="#A4A4A4">
            <g id="9anime-companion-extension" transform="translate(539.000000, 155.000000)">
                <g id="mal-sync-button" transform="translate(121.000000, 357.000000)">
                    <g id="6:12" transform="translate(9.000000, 9.000000)">
                        <g id="myanimelist-2">
                            <path d="M11.8323001,11.4767579 C11.2222424,10.5026699 10.7234313,9.18362188 10.529612,8.03195196 C10.363668,7.0459098 10.4184911,5.57015412 10.6543914,4.67310641 C10.9687092,3.47787412 11.5147072,2.49751076 12.2912613,1.73404309 C13.1477285,0.892007085 13.8417746,0.508180278 14.9989429,0.236616687 C15.6056264,0.0942411697 15.923105,0.0654452334 17.2191338,0.0352421244 L18.7314133,1.77635684e-15 L19.0272566,1.09228454 C19.1899699,1.69304146 19.3353991,2.21829042 19.3504323,2.25950763 C19.369918,2.31293253 18.9280522,2.34476429 17.8111585,2.37038999 C16.0812832,2.41008276 15.6516321,2.47964761 14.9970377,2.82602499 C14.4662549,3.10688744 14.0449201,3.5469437 13.7614328,4.11653497 C13.6299927,4.38062886 13.5224518,4.63199745 13.5224518,4.675136 C13.5224518,4.7325406 13.8733501,4.75356633 14.8313871,4.75356633 L16.1403207,4.75356633 L16.1588395,3.70261246 L16.1773393,2.65165882 L17.5383918,2.63359524 L18.8994428,2.61553157 L18.8994428,6.48847389 L18.8994428,10.3614164 L17.5383918,10.3433528 L16.1773393,10.3252892 L16.1593349,8.70715386 L16.1413305,7.08901929 L14.6875992,7.08901929 L13.2338642,7.08901929 L13.2757621,7.58109136 C13.3283294,8.19846331 13.5906344,9.03256005 13.9498928,9.7247438 C14.1022772,10.0183436 14.2358531,10.2767366 14.2467243,10.2989504 C14.2664893,10.3393334 12.294043,11.6535281 12.1084275,11.7236473 C12.0438801,11.7480322 11.9491233,11.6633127 11.8322868,11.4767556 L11.8323001,11.4767579 Z M0.0448092091,10.3141689 C0.0201629882,10.2897029 0,7.96195595 0,5.14139946 L0,0.0131136955 L1.32258831,0.0312151503 L2.64517508,0.0492977091 L3.37940575,1.05020668 C3.78323343,1.60070503 4.27340072,2.2705274 4.46866792,2.53869776 L4.82369865,3.02627979 L5.9476762,1.52110774 L7.07165145,0.015933855 L8.37511859,0.015933855 L9.67858597,0.015933855 L9.67858597,5.18867675 L9.67858597,10.3614179 L8.31753471,10.3433543 L6.95648369,10.3252907 L6.93901234,7.22936705 L6.92154175,4.13344491 L5.8749643,5.51732738 L4.82838762,6.90120833 L4.14353569,5.97752425 C3.7668694,5.46949774 3.30808167,4.84880638 3.12400944,4.59821123 L2.78933435,4.14258227 L2.771863,7.2506177 L2.75439242,10.3586547 L1.42201081,10.3586547 C0.689201083,10.3586547 0.0694669887,10.3386349 0.044822309,10.3141689 L0.0448092091,10.3141689 Z M19.726841,10.3141651 C19.7021963,10.2897021 19.6820325,7.96259091 19.6820325,5.14280785 L19.6820325,0.0159319424 L21.0598868,0.0159319424 L22.4377411,0.0159319424 L22.4377411,3.98620434 L22.4377411,7.9564746 L24.2188698,7.9564746 C25.606337,7.9564746 26,7.97504922 26,8.04053545 C26,8.08676927 25.8968949,8.4996437 25.7708866,8.95803437 C25.6448683,9.41642503 25.5076027,9.919088 25.4658357,10.0750628 L25.3899066,10.3586547 L22.5807784,10.3586547 C21.0357569,10.3586547 19.7514849,10.3386349 19.726841,10.3141689 L19.726841,10.3141651 Z" id="mal-icon"></path>
                        </g>
                    </g>
                </g>
            </g>
        </g>
    </g>
</svg>
