<?xml version="1.0" encoding="UTF-8"?>
<svg width="19px" height="16px" viewBox="0 0 19 16" version="1.1" xmlns="http://www.w3.org/2000/svg" xmlns:xlink="http://www.w3.org/1999/xlink">
    <g id="Page-1" stroke="none" stroke-width="1" fill="none" fill-rule="evenodd">
        <g id="popup" transform="translate(-619.000000, -518.000000)" fill="#A4A4A4">
            <g id="9anime-companion-extension" transform="translate(539.000000, 155.000000)">
                <g id="pinned-anime" transform="translate(68.000000, 357.000000)">
                    <path d="M30.9303333,17.032 L30.9303333,17.032 L27.7396,7.096 C27.5293333,6.44 26.8998,6 26.1721,6 C26.0137667,6 25.8560667,6.02153846 25.7053333,6.064 L21.1782667,7.33292308 C21.1497667,6.59384615 20.5259333,6 19.7583333,6 C18.973,6 18.3333333,6.62153846 18.3333333,7.38461538 C18.3333333,8.14769231 18.973,8.76923077 19.7583333,8.76923077 C19.9223667,8.76923077 20.0775333,8.73723077 20.2244667,8.68676923 L20.9338,9.57353846 C20.9952333,9.65169231 21.0896,9.69230769 21.1833333,9.69230769 C21.2517333,9.69230769 21.3201333,9.67138462 21.3777667,9.62769231 C21.5158333,9.52369231 21.5411667,9.32984615 21.4335,9.19630769 L21.0066333,8.66215385 L26.0574667,7.24676923 C26.2462,7.19507692 26.4773667,7.29661538 26.5299333,7.46153846 L29.7206667,17.3975385 C29.7295333,17.4246154 29.7333333,17.4510769 29.7333333,17.4781538 C29.7333333,17.6116923 29.6313667,17.7298462 29.4787333,17.7723077 L18.8431667,20.7538462 C18.6538,20.8067692 18.4232667,20.7046154 18.3700667,20.5384615 L15.1799667,10.6030769 C15.1711,10.576 15.1666667,10.5495385 15.1666667,10.5224615 C15.1666667,10.3883077 15.2686333,10.2707692 15.4219,10.2276923 L18.3035667,9.42030769 C18.4144,9.38892308 18.4999,9.30092308 18.5246,9.19076923 C18.5493,9.08 18.5106667,8.96553846 18.4226333,8.89107692 C18.2611333,8.75630769 18.1262333,8.60676923 18.023,8.448 L18.0223667,8.448 C17.8450333,8.17415385 17.7386333,7.85292308 17.7158333,7.51753846 C17.7044333,7.35630769 17.5663667,7.23076923 17.3998,7.23076923 L13.2666667,7.23076923 C12.5687333,7.23076923 12,7.78338462 12,8.46153846 L12,20.1538462 C12,20.8326154 12.5687333,21.3846154 13.2666667,21.3846154 L17.4207,21.3846154 C17.7228,21.7643077 18.1978,22 18.7279,22 C18.8862333,22 19.0439333,21.9784615 19.1953,21.9366154 L29.8302333,18.9550769 C30.5193,18.7624615 31,18.1544615 31,17.4781538 C31,17.3267692 30.9765667,17.1772308 30.9303333,17.032" id="pinned"></path>
                </g>
            </g>
        </g>
    </g>
</svg>
