<?xml version="1.0" encoding="UTF-8"?>
<svg width="24px" height="13px" viewBox="0 0 24 13" version="1.1" xmlns="http://www.w3.org/2000/svg" xmlns:xlink="http://www.w3.org/1999/xlink">
    <g id="Page-1" stroke="none" stroke-width="1" fill="none" fill-rule="evenodd">
        <g id="popup" transform="translate(-564.000000, -465.000000)" fill="#A4A4A4">
            <g id="9anime-companion-extension" transform="translate(539.000000, 155.000000)">
                <g id="recently-watched-anime" transform="translate(15.000000, 302.000000)">
                    <path d="M23.296,17.75 C22.6224,17.75 22.4232,17.511125 22.0816,17.511125 C21.7416,17.511125 21.5424,17.75 20.8688,17.75 C20.1952,17.75 19.2,16.435375 19.2,15.3604375 C19.2,14.2846875 20.2144,13.6875 20.7168,13.6875 C21.2192,13.6875 21.6648,13.926375 22.0816,13.926375 C22.4992,13.926375 22.9456,13.6875 23.4472,13.6875 C23.7552,13.6875 24.2552,13.9125625 24.5968,14.33425 C24.108,14.45775 23.7512,14.8144375 23.7512,15.241 C23.7512,15.7244375 24.2088,16.120125 24.8,16.1835 C24.4888,17.0081875 23.8016,17.75 23.296,17.75 M23.5552,11.65625 C23.5552,12.55325 22.8592,13.28125 22,13.28125 C22,12.38425 22.696,11.65625 23.5552,11.65625 M31.764,8 L12.236,8 C11.0032,8 10,9.0115625 10,10.2546875 C10,10.405 10.0144,10.5553125 10.044,10.6966875 L11.7816,19.4489375 C11.96,20.3475625 12.7488,21 13.6576,21 L30.3424,21 C31.2504,21 32.04,20.3475625 32.2176,19.4489375 L33.9552,10.699125 C33.9848,10.5553125 34,10.405 34,10.2546875 C34,9.0115625 32.9968,8 31.764,8" id="recently-watched"></path>
                </g>
            </g>
        </g>
    </g>
</svg>
